<svg xmlns="http://www.w3.org/2000/svg" version="1.1" xmlns:xlink="http://www.w3.org/1999/xlink" xmlns:svgjs="http://svgjs.dev/svgjs" viewBox="0 0 800 400"><path d="M8.968609809875488,6.278027057647705C267.56352551778156,131.2406593958537,784.1554495493571,255.90434153874713,784.7533569335938,381.1659240722656C785.3512643178304,506.4275066057841,8.968610445658365,505.23168500264484,10.76233196258545,382.0627746582031C12.556053479512533,258.8938643137614,530.0448414484661,43.34827995300293,790.134521484375,11.65919303894043C1050.224201520284,-20.02989387512207,1053.21373128891,267.2645715077718,791.0313720703125,286.9955139160156C528.8490128517151,306.72645632425946,267.26456785202026,66.66666666666667,3.5874438285827637,70.85202026367188C-260.08968019485474,75.03737386067708,-261.8834090232849,294.768315633138,0,299.55157470703125C261.8834090232849,304.3348337809245,524.6636759440105,127.35426330566406,789.2376708984375,85.20179748535156C1053.8116658528645,43.04933166503906,1054.1106255849202,86.99551900227864,793.7219848632812,173.09417724609375C533.3333441416423,259.1928354899089,272.94469734032947,364.12557729085285,8.071748733520508,343.4977722167969C-256.80119987328845,322.8699671427409,-263.6771235863368,115.99402618408203,-0.8968609571456909,111.21076202392578C261.8834016720454,106.42749786376953,530.6427374283473,256.50224049886066,796.4125366210938,329.1479797363281" fill="none" stroke-width="6" stroke="url(&quot;#SvgjsLinearGradient1000&quot;)" stroke-linecap="round" transform="matrix(-11.635529605727408,-1.4958631881595792,-4.0029569119005375,0.08740099631493836,5934.898545017267,773.0080356498528)" stroke-dasharray="0 0"></path><defs><linearGradient id="SvgjsLinearGradient1000"><stop stop-color="#ba0c2f" offset="0"></stop><stop stop-color="#f5f5f5" offset="1"></stop></linearGradient></defs></svg>